<mxfile host="Electron" agent="Mozilla/5.0 (Macintosh; Intel Mac OS X 10_15_7) AppleWebKit/537.36 (KHTML, like Gecko) draw.io/24.7.17 Chrome/128.0.6613.36 Electron/32.0.1 Safari/537.36" version="24.7.17" pages="2">
  <diagram name="Architecture" id="Qzybe70H2OYo6iy9r0KS">
    <mxGraphModel dx="1964" dy="854" grid="0" gridSize="10" guides="1" tooltips="1" connect="1" arrows="1" fold="1" page="1" pageScale="1" pageWidth="850" pageHeight="1100" math="0" shadow="0">
      <root>
        <mxCell id="0" />
        <mxCell id="1" parent="0" />
        <mxCell id="h2PbothfYAk7GSDwO4GC-1" value="" style="rounded=0;whiteSpace=wrap;html=1;dashed=1;" vertex="1" parent="1">
          <mxGeometry y="540" width="774" height="130" as="geometry" />
        </mxCell>
        <mxCell id="h2PbothfYAk7GSDwO4GC-2" value="Azure Storage Account&lt;div&gt;&lt;br&gt;&lt;/div&gt;" style="image;aspect=fixed;html=1;points=[];align=center;fontSize=12;image=img/lib/azure2/storage/Storage_Accounts.svg;" vertex="1" parent="1">
          <mxGeometry x="366" y="582" width="65" height="52" as="geometry" />
        </mxCell>
        <mxCell id="h2PbothfYAk7GSDwO4GC-3" value="Storage" style="text;html=1;align=center;verticalAlign=middle;whiteSpace=wrap;rounded=0;" vertex="1" parent="1">
          <mxGeometry y="540" width="76" height="30" as="geometry" />
        </mxCell>
        <mxCell id="h2PbothfYAk7GSDwO4GC-4" value="" style="rounded=0;whiteSpace=wrap;html=1;dashed=1;" vertex="1" parent="1">
          <mxGeometry y="280" width="773" height="150" as="geometry" />
        </mxCell>
        <mxCell id="h2PbothfYAk7GSDwO4GC-5" value="Azure Cognitive Service" style="text;html=1;align=center;verticalAlign=middle;whiteSpace=wrap;rounded=0;" vertex="1" parent="1">
          <mxGeometry y="280" width="100" height="30" as="geometry" />
        </mxCell>
        <mxCell id="h2PbothfYAk7GSDwO4GC-6" value="" style="rounded=0;whiteSpace=wrap;html=1;dashed=1;" vertex="1" parent="1">
          <mxGeometry y="40" width="773" height="130" as="geometry" />
        </mxCell>
        <mxCell id="h2PbothfYAk7GSDwO4GC-7" value="Input" style="text;html=1;align=center;verticalAlign=middle;whiteSpace=wrap;rounded=0;" vertex="1" parent="1">
          <mxGeometry x="-2" y="40" width="69" height="30" as="geometry" />
        </mxCell>
        <mxCell id="h2PbothfYAk7GSDwO4GC-26" style="edgeStyle=orthogonalEdgeStyle;rounded=0;orthogonalLoop=1;jettySize=auto;html=1;" edge="1" parent="1" source="h2PbothfYAk7GSDwO4GC-8" target="h2PbothfYAk7GSDwO4GC-2">
          <mxGeometry relative="1" as="geometry">
            <Array as="points">
              <mxPoint x="130" y="480" />
              <mxPoint x="402" y="480" />
            </Array>
          </mxGeometry>
        </mxCell>
        <mxCell id="h2PbothfYAk7GSDwO4GC-8" value="Azure Form Recognizer" style="image;aspect=fixed;html=1;points=[];align=center;fontSize=12;image=img/lib/azure2/ai_machine_learning/Form_Recognizers.svg;" vertex="1" parent="1">
          <mxGeometry x="98.4" y="321" width="63.2" height="68" as="geometry" />
        </mxCell>
        <mxCell id="h2PbothfYAk7GSDwO4GC-27" style="edgeStyle=orthogonalEdgeStyle;rounded=0;orthogonalLoop=1;jettySize=auto;html=1;" edge="1" parent="1" source="h2PbothfYAk7GSDwO4GC-9" target="h2PbothfYAk7GSDwO4GC-2">
          <mxGeometry relative="1" as="geometry">
            <Array as="points">
              <mxPoint x="314" y="480" />
              <mxPoint x="401" y="480" />
            </Array>
          </mxGeometry>
        </mxCell>
        <mxCell id="h2PbothfYAk7GSDwO4GC-9" value="Azure Face API" style="image;aspect=fixed;html=1;points=[];align=center;fontSize=12;image=img/lib/azure2/ai_machine_learning/Face_APIs.svg;" vertex="1" parent="1">
          <mxGeometry x="280" y="320" width="68" height="68" as="geometry" />
        </mxCell>
        <mxCell id="h2PbothfYAk7GSDwO4GC-28" style="edgeStyle=orthogonalEdgeStyle;rounded=0;orthogonalLoop=1;jettySize=auto;html=1;" edge="1" parent="1" source="h2PbothfYAk7GSDwO4GC-10" target="h2PbothfYAk7GSDwO4GC-2">
          <mxGeometry relative="1" as="geometry">
            <Array as="points">
              <mxPoint x="480" y="480" />
              <mxPoint x="400" y="480" />
            </Array>
          </mxGeometry>
        </mxCell>
        <mxCell id="h2PbothfYAk7GSDwO4GC-10" value="Azure Video Analyzer" style="image;aspect=fixed;html=1;points=[];align=center;fontSize=12;image=img/lib/azure2/other/Azure_Video_Indexer.svg;" vertex="1" parent="1">
          <mxGeometry x="450" y="320" width="60" height="68" as="geometry" />
        </mxCell>
        <mxCell id="h2PbothfYAk7GSDwO4GC-29" style="edgeStyle=orthogonalEdgeStyle;rounded=0;orthogonalLoop=1;jettySize=auto;html=1;" edge="1" parent="1" source="h2PbothfYAk7GSDwO4GC-11" target="h2PbothfYAk7GSDwO4GC-2">
          <mxGeometry relative="1" as="geometry">
            <Array as="points">
              <mxPoint x="684" y="480" />
              <mxPoint x="399" y="480" />
            </Array>
          </mxGeometry>
        </mxCell>
        <mxCell id="h2PbothfYAk7GSDwO4GC-11" value="Azure Custom Vision" style="image;aspect=fixed;html=1;points=[];align=center;fontSize=12;image=img/lib/azure2/ai_machine_learning/Custom_Vision.svg;" vertex="1" parent="1">
          <mxGeometry x="650" y="321" width="68" height="68" as="geometry" />
        </mxCell>
        <mxCell id="h2PbothfYAk7GSDwO4GC-16" style="edgeStyle=orthogonalEdgeStyle;rounded=0;orthogonalLoop=1;jettySize=auto;html=1;" edge="1" parent="1" source="h2PbothfYAk7GSDwO4GC-12" target="h2PbothfYAk7GSDwO4GC-8">
          <mxGeometry relative="1" as="geometry" />
        </mxCell>
        <mxCell id="h2PbothfYAk7GSDwO4GC-12" value="Broading Pass" style="rounded=1;whiteSpace=wrap;html=1;" vertex="1" parent="1">
          <mxGeometry x="30" y="90" width="120" height="60" as="geometry" />
        </mxCell>
        <mxCell id="h2PbothfYAk7GSDwO4GC-17" style="edgeStyle=orthogonalEdgeStyle;rounded=0;orthogonalLoop=1;jettySize=auto;html=1;" edge="1" parent="1" source="h2PbothfYAk7GSDwO4GC-13" target="h2PbothfYAk7GSDwO4GC-8">
          <mxGeometry relative="1" as="geometry">
            <Array as="points">
              <mxPoint x="280" y="220" />
              <mxPoint x="152" y="220" />
            </Array>
          </mxGeometry>
        </mxCell>
        <mxCell id="h2PbothfYAk7GSDwO4GC-18" style="edgeStyle=orthogonalEdgeStyle;rounded=0;orthogonalLoop=1;jettySize=auto;html=1;" edge="1" parent="1" source="h2PbothfYAk7GSDwO4GC-13" target="h2PbothfYAk7GSDwO4GC-9">
          <mxGeometry relative="1" as="geometry">
            <Array as="points">
              <mxPoint x="314" y="190" />
              <mxPoint x="314" y="190" />
            </Array>
          </mxGeometry>
        </mxCell>
        <mxCell id="h2PbothfYAk7GSDwO4GC-13" value="ID Card" style="rounded=1;whiteSpace=wrap;html=1;" vertex="1" parent="1">
          <mxGeometry x="239" y="90" width="120" height="60" as="geometry" />
        </mxCell>
        <mxCell id="h2PbothfYAk7GSDwO4GC-19" style="edgeStyle=orthogonalEdgeStyle;rounded=0;orthogonalLoop=1;jettySize=auto;html=1;" edge="1" parent="1" source="h2PbothfYAk7GSDwO4GC-14" target="h2PbothfYAk7GSDwO4GC-10">
          <mxGeometry relative="1" as="geometry">
            <Array as="points">
              <mxPoint x="480" y="230" />
              <mxPoint x="480" y="230" />
            </Array>
          </mxGeometry>
        </mxCell>
        <mxCell id="h2PbothfYAk7GSDwO4GC-14" value="Video" style="rounded=1;whiteSpace=wrap;html=1;" vertex="1" parent="1">
          <mxGeometry x="423" y="90" width="120" height="60" as="geometry" />
        </mxCell>
        <mxCell id="h2PbothfYAk7GSDwO4GC-20" style="edgeStyle=orthogonalEdgeStyle;rounded=0;orthogonalLoop=1;jettySize=auto;html=1;" edge="1" parent="1" source="h2PbothfYAk7GSDwO4GC-15" target="h2PbothfYAk7GSDwO4GC-11">
          <mxGeometry relative="1" as="geometry">
            <Array as="points">
              <mxPoint x="684" y="178" />
              <mxPoint x="684" y="178" />
            </Array>
          </mxGeometry>
        </mxCell>
        <mxCell id="h2PbothfYAk7GSDwO4GC-15" value="Lighter Images" style="rounded=1;whiteSpace=wrap;html=1;" vertex="1" parent="1">
          <mxGeometry x="620" y="90" width="120" height="60" as="geometry" />
        </mxCell>
        <mxCell id="XvlAnH1doo_dADqxgoTW-2" style="edgeStyle=orthogonalEdgeStyle;rounded=0;orthogonalLoop=1;jettySize=auto;html=1;" edge="1" parent="1" source="XvlAnH1doo_dADqxgoTW-1" target="h2PbothfYAk7GSDwO4GC-2">
          <mxGeometry relative="1" as="geometry" />
        </mxCell>
        <mxCell id="XvlAnH1doo_dADqxgoTW-1" value="Flight Manifest" style="image;aspect=fixed;perimeter=ellipsePerimeter;html=1;align=center;shadow=0;dashed=0;spacingTop=3;image=img/lib/active_directory/list.svg;" vertex="1" parent="1">
          <mxGeometry x="535" y="583" width="35" height="50" as="geometry" />
        </mxCell>
      </root>
    </mxGraphModel>
  </diagram>
  <diagram id="DUlpQFKd92-DyctXhbwm" name="Flow Activies">
    <mxGraphModel dx="1114" dy="854" grid="0" gridSize="10" guides="1" tooltips="1" connect="1" arrows="1" fold="1" page="1" pageScale="1" pageWidth="850" pageHeight="1100" math="0" shadow="0">
      <root>
        <mxCell id="0" />
        <mxCell id="1" parent="0" />
        <mxCell id="fvEqajUsS6O06vfmAHkp-6" style="edgeStyle=orthogonalEdgeStyle;rounded=0;orthogonalLoop=1;jettySize=auto;html=1;" edge="1" parent="1" source="5XbPvkHlmFNJwbasRJmc-1" target="fvEqajUsS6O06vfmAHkp-4">
          <mxGeometry relative="1" as="geometry" />
        </mxCell>
        <mxCell id="5XbPvkHlmFNJwbasRJmc-1" value="Broading Pass" style="strokeWidth=2;html=1;shape=mxgraph.flowchart.start_1;whiteSpace=wrap;" vertex="1" parent="1">
          <mxGeometry x="33" y="202" width="100" height="60" as="geometry" />
        </mxCell>
        <mxCell id="fvEqajUsS6O06vfmAHkp-10" style="edgeStyle=orthogonalEdgeStyle;rounded=0;orthogonalLoop=1;jettySize=auto;html=1;" edge="1" parent="1" source="5XbPvkHlmFNJwbasRJmc-3" target="fvEqajUsS6O06vfmAHkp-1">
          <mxGeometry relative="1" as="geometry" />
        </mxCell>
        <mxCell id="5XbPvkHlmFNJwbasRJmc-3" value="Lighter Images" style="strokeWidth=2;html=1;shape=mxgraph.flowchart.start_1;whiteSpace=wrap;" vertex="1" parent="1">
          <mxGeometry x="31" y="883" width="100" height="60" as="geometry" />
        </mxCell>
        <mxCell id="fvEqajUsS6O06vfmAHkp-9" style="edgeStyle=orthogonalEdgeStyle;rounded=0;orthogonalLoop=1;jettySize=auto;html=1;" edge="1" parent="1" source="5XbPvkHlmFNJwbasRJmc-4" target="fvEqajUsS6O06vfmAHkp-2">
          <mxGeometry relative="1" as="geometry" />
        </mxCell>
        <mxCell id="5XbPvkHlmFNJwbasRJmc-4" value="Video" style="strokeWidth=2;html=1;shape=mxgraph.flowchart.start_1;whiteSpace=wrap;" vertex="1" parent="1">
          <mxGeometry x="31" y="720" width="100" height="60" as="geometry" />
        </mxCell>
        <mxCell id="fvEqajUsS6O06vfmAHkp-7" style="edgeStyle=orthogonalEdgeStyle;rounded=0;orthogonalLoop=1;jettySize=auto;html=1;entryX=0.5;entryY=1;entryDx=0;entryDy=0;" edge="1" parent="1" source="5XbPvkHlmFNJwbasRJmc-5" target="fvEqajUsS6O06vfmAHkp-4">
          <mxGeometry relative="1" as="geometry" />
        </mxCell>
        <mxCell id="5XbPvkHlmFNJwbasRJmc-5" value="ID Card" style="strokeWidth=2;html=1;shape=mxgraph.flowchart.start_1;whiteSpace=wrap;" vertex="1" parent="1">
          <mxGeometry x="33" y="383" width="100" height="60" as="geometry" />
        </mxCell>
        <mxCell id="fvEqajUsS6O06vfmAHkp-30" style="edgeStyle=orthogonalEdgeStyle;rounded=0;orthogonalLoop=1;jettySize=auto;html=1;entryX=0;entryY=0.5;entryDx=0;entryDy=0;" edge="1" parent="1" source="fvEqajUsS6O06vfmAHkp-1" target="fvEqajUsS6O06vfmAHkp-29">
          <mxGeometry relative="1" as="geometry" />
        </mxCell>
        <mxCell id="fvEqajUsS6O06vfmAHkp-1" value="Azure Custom Vision" style="rounded=1;whiteSpace=wrap;html=1;absoluteArcSize=1;arcSize=14;strokeWidth=2;" vertex="1" parent="1">
          <mxGeometry x="233" y="863" width="100" height="100" as="geometry" />
        </mxCell>
        <mxCell id="fvEqajUsS6O06vfmAHkp-25" style="edgeStyle=orthogonalEdgeStyle;rounded=0;orthogonalLoop=1;jettySize=auto;html=1;entryX=0;entryY=0.5;entryDx=0;entryDy=0;" edge="1" parent="1" source="fvEqajUsS6O06vfmAHkp-2" target="fvEqajUsS6O06vfmAHkp-21">
          <mxGeometry relative="1" as="geometry" />
        </mxCell>
        <mxCell id="fvEqajUsS6O06vfmAHkp-2" value="Azure Video Analyzer" style="rounded=1;whiteSpace=wrap;html=1;absoluteArcSize=1;arcSize=14;strokeWidth=2;" vertex="1" parent="1">
          <mxGeometry x="226" y="700" width="100" height="100" as="geometry" />
        </mxCell>
        <mxCell id="fvEqajUsS6O06vfmAHkp-23" style="edgeStyle=orthogonalEdgeStyle;rounded=0;orthogonalLoop=1;jettySize=auto;html=1;entryX=0;entryY=0.5;entryDx=0;entryDy=0;" edge="1" parent="1" source="fvEqajUsS6O06vfmAHkp-3" target="fvEqajUsS6O06vfmAHkp-20">
          <mxGeometry relative="1" as="geometry" />
        </mxCell>
        <mxCell id="fvEqajUsS6O06vfmAHkp-3" value="Azure Face API" style="rounded=1;whiteSpace=wrap;html=1;absoluteArcSize=1;arcSize=14;strokeWidth=2;" vertex="1" parent="1">
          <mxGeometry x="226" y="534" width="100" height="100" as="geometry" />
        </mxCell>
        <mxCell id="fvEqajUsS6O06vfmAHkp-15" style="edgeStyle=orthogonalEdgeStyle;rounded=0;orthogonalLoop=1;jettySize=auto;html=1;" edge="1" parent="1" source="fvEqajUsS6O06vfmAHkp-4">
          <mxGeometry relative="1" as="geometry">
            <mxPoint x="491" y="262" as="targetPoint" />
          </mxGeometry>
        </mxCell>
        <mxCell id="fvEqajUsS6O06vfmAHkp-16" style="edgeStyle=orthogonalEdgeStyle;rounded=0;orthogonalLoop=1;jettySize=auto;html=1;" edge="1" parent="1" source="fvEqajUsS6O06vfmAHkp-4" target="fvEqajUsS6O06vfmAHkp-12">
          <mxGeometry relative="1" as="geometry" />
        </mxCell>
        <mxCell id="fvEqajUsS6O06vfmAHkp-4" value="Azure Form Reognizer" style="rounded=1;whiteSpace=wrap;html=1;absoluteArcSize=1;arcSize=14;strokeWidth=2;" vertex="1" parent="1">
          <mxGeometry x="226" y="272" width="100" height="100" as="geometry" />
        </mxCell>
        <mxCell id="fvEqajUsS6O06vfmAHkp-8" style="edgeStyle=orthogonalEdgeStyle;rounded=0;orthogonalLoop=1;jettySize=auto;html=1;" edge="1" parent="1" source="fvEqajUsS6O06vfmAHkp-5" target="fvEqajUsS6O06vfmAHkp-3">
          <mxGeometry relative="1" as="geometry" />
        </mxCell>
        <mxCell id="fvEqajUsS6O06vfmAHkp-5" value="ID Card" style="strokeWidth=2;html=1;shape=mxgraph.flowchart.start_1;whiteSpace=wrap;" vertex="1" parent="1">
          <mxGeometry x="31" y="554" width="100" height="60" as="geometry" />
        </mxCell>
        <mxCell id="fvEqajUsS6O06vfmAHkp-17" style="edgeStyle=orthogonalEdgeStyle;rounded=0;orthogonalLoop=1;jettySize=auto;html=1;" edge="1" parent="1" target="fvEqajUsS6O06vfmAHkp-14">
          <mxGeometry relative="1" as="geometry">
            <mxPoint x="529.5" y="232" as="sourcePoint" />
          </mxGeometry>
        </mxCell>
        <mxCell id="fvEqajUsS6O06vfmAHkp-11" value="Fight Deatil" style="shape=parallelogram;html=1;strokeWidth=2;perimeter=parallelogramPerimeter;whiteSpace=wrap;rounded=1;arcSize=12;size=0.23;" vertex="1" parent="1">
          <mxGeometry x="531" y="202" width="100" height="60" as="geometry" />
        </mxCell>
        <mxCell id="fvEqajUsS6O06vfmAHkp-12" value="Passender Info" style="shape=parallelogram;html=1;strokeWidth=2;perimeter=parallelogramPerimeter;whiteSpace=wrap;rounded=1;arcSize=12;size=0.23;" vertex="1" parent="1">
          <mxGeometry x="441" y="383" width="100" height="60" as="geometry" />
        </mxCell>
        <mxCell id="fvEqajUsS6O06vfmAHkp-13" value="Data Extraction" style="strokeWidth=2;html=1;shape=mxgraph.flowchart.direct_data;whiteSpace=wrap;" vertex="1" parent="1">
          <mxGeometry x="625" y="557" width="100" height="60" as="geometry" />
        </mxCell>
        <mxCell id="fvEqajUsS6O06vfmAHkp-19" style="edgeStyle=orthogonalEdgeStyle;rounded=0;orthogonalLoop=1;jettySize=auto;html=1;" edge="1" parent="1" source="fvEqajUsS6O06vfmAHkp-14" target="fvEqajUsS6O06vfmAHkp-13">
          <mxGeometry relative="1" as="geometry" />
        </mxCell>
        <mxCell id="fvEqajUsS6O06vfmAHkp-14" value="Valid" style="strokeWidth=2;html=1;shape=mxgraph.flowchart.decision;whiteSpace=wrap;" vertex="1" parent="1">
          <mxGeometry x="625" y="272" width="100" height="100" as="geometry" />
        </mxCell>
        <mxCell id="fvEqajUsS6O06vfmAHkp-18" style="edgeStyle=orthogonalEdgeStyle;rounded=0;orthogonalLoop=1;jettySize=auto;html=1;entryX=0;entryY=0.5;entryDx=0;entryDy=0;entryPerimeter=0;" edge="1" parent="1" source="fvEqajUsS6O06vfmAHkp-12" target="fvEqajUsS6O06vfmAHkp-14">
          <mxGeometry relative="1" as="geometry" />
        </mxCell>
        <mxCell id="fvEqajUsS6O06vfmAHkp-20" value="Face" style="shape=parallelogram;html=1;strokeWidth=2;perimeter=parallelogramPerimeter;whiteSpace=wrap;rounded=1;arcSize=12;size=0.23;" vertex="1" parent="1">
          <mxGeometry x="441" y="554" width="100" height="60" as="geometry" />
        </mxCell>
        <mxCell id="fvEqajUsS6O06vfmAHkp-27" style="edgeStyle=orthogonalEdgeStyle;rounded=0;orthogonalLoop=1;jettySize=auto;html=1;entryX=0;entryY=0.5;entryDx=0;entryDy=0;entryPerimeter=0;" edge="1" parent="1" source="fvEqajUsS6O06vfmAHkp-21" target="fvEqajUsS6O06vfmAHkp-22">
          <mxGeometry relative="1" as="geometry">
            <mxPoint x="604" y="750" as="targetPoint" />
          </mxGeometry>
        </mxCell>
        <mxCell id="fvEqajUsS6O06vfmAHkp-21" value="Face" style="shape=parallelogram;html=1;strokeWidth=2;perimeter=parallelogramPerimeter;whiteSpace=wrap;rounded=1;arcSize=12;size=0.23;" vertex="1" parent="1">
          <mxGeometry x="441" y="720" width="100" height="60" as="geometry" />
        </mxCell>
        <mxCell id="fvEqajUsS6O06vfmAHkp-22" value="Valid" style="strokeWidth=2;html=1;shape=mxgraph.flowchart.decision;whiteSpace=wrap;" vertex="1" parent="1">
          <mxGeometry x="625" y="700" width="100" height="100" as="geometry" />
        </mxCell>
        <mxCell id="fvEqajUsS6O06vfmAHkp-26" style="edgeStyle=orthogonalEdgeStyle;rounded=0;orthogonalLoop=1;jettySize=auto;html=1;entryX=0;entryY=0.5;entryDx=0;entryDy=0;entryPerimeter=0;" edge="1" parent="1" source="fvEqajUsS6O06vfmAHkp-20" target="fvEqajUsS6O06vfmAHkp-22">
          <mxGeometry relative="1" as="geometry" />
        </mxCell>
        <mxCell id="fvEqajUsS6O06vfmAHkp-28" style="edgeStyle=orthogonalEdgeStyle;rounded=0;orthogonalLoop=1;jettySize=auto;html=1;entryX=0.5;entryY=1;entryDx=0;entryDy=0;entryPerimeter=0;" edge="1" parent="1" source="fvEqajUsS6O06vfmAHkp-22" target="fvEqajUsS6O06vfmAHkp-13">
          <mxGeometry relative="1" as="geometry" />
        </mxCell>
        <mxCell id="fvEqajUsS6O06vfmAHkp-29" value="Lighter Object" style="shape=parallelogram;html=1;strokeWidth=2;perimeter=parallelogramPerimeter;whiteSpace=wrap;rounded=1;arcSize=12;size=0.23;" vertex="1" parent="1">
          <mxGeometry x="433" y="883" width="100" height="60" as="geometry" />
        </mxCell>
        <mxCell id="fvEqajUsS6O06vfmAHkp-31" style="edgeStyle=orthogonalEdgeStyle;rounded=0;orthogonalLoop=1;jettySize=auto;html=1;entryX=0.5;entryY=1;entryDx=0;entryDy=0;entryPerimeter=0;" edge="1" parent="1" source="fvEqajUsS6O06vfmAHkp-29" target="fvEqajUsS6O06vfmAHkp-22">
          <mxGeometry relative="1" as="geometry" />
        </mxCell>
        <mxCell id="fvEqajUsS6O06vfmAHkp-32" value="Result" style="verticalLabelPosition=bottom;verticalAlign=top;html=1;shape=mxgraph.flowchart.or;" vertex="1" parent="1">
          <mxGeometry x="772" y="544" width="70" height="70" as="geometry" />
        </mxCell>
        <mxCell id="fvEqajUsS6O06vfmAHkp-33" style="edgeStyle=orthogonalEdgeStyle;rounded=0;orthogonalLoop=1;jettySize=auto;html=1;entryX=0.014;entryY=0.6;entryDx=0;entryDy=0;entryPerimeter=0;" edge="1" parent="1" source="fvEqajUsS6O06vfmAHkp-13" target="fvEqajUsS6O06vfmAHkp-32">
          <mxGeometry relative="1" as="geometry" />
        </mxCell>
      </root>
    </mxGraphModel>
  </diagram>
</mxfile>
